<svg version="1.1" viewBox="0.0 0.0 100.0 100.0" fill="none" stroke="none" stroke-linecap="square" stroke-miterlimit="10" xmlns:xlink="http://www.w3.org/1999/xlink" xmlns="http://www.w3.org/2000/svg"><clipPath id="p.0"><path d="m0 0l100.0 0l0 100.0l-100.0 0l0 -100.0z" clip-rule="nonzero"/></clipPath><g clip-path="url(#p.0)"><path fill="#000000" fill-opacity="0.0" d="m0 0l100.0 0l0 100.0l-100.0 0z" fill-rule="evenodd"/><path fill="#000000" fill-opacity="0.0" d="m8.409449 50.0l0 0c0 -22.969828 18.620724 -41.590553 41.590553 -41.590553l0 0c11.0304985 0 21.609222 4.3818493 29.408958 12.181591c7.7997437 7.7997417 12.181595 18.378462 12.181595 29.40896l0 0c0 22.969826 -18.620728 41.590553 -41.590553 41.590553l0 0c-22.969828 0 -41.590553 -18.620728 -41.590553 -41.590553z" fill-rule="evenodd"/><path stroke="#000000" stroke-width="2.0" stroke-linejoin="round" stroke-linecap="butt" d="m8.409449 50.0l0 0c0 -22.969828 18.620724 -41.590553 41.590553 -41.590553l0 0c11.0304985 0 21.609222 4.3818493 29.408958 12.181591c7.7997437 7.7997417 12.181595 18.378462 12.181595 29.40896l0 0c0 22.969826 -18.620728 41.590553 -41.590553 41.590553l0 0c-22.969828 0 -41.590553 -18.620728 -41.590553 -41.590553z" fill-rule="evenodd"/><path fill="#005db9" d="m19.435104 40.217903l20.782799 0l0 -20.782799l19.564194 0l0 20.782799l20.782799 0l0 19.564194l-20.782799 0l0 20.782799l-19.564194 0l0 -20.782799l-20.782799 0z" fill-rule="evenodd"/></g></svg>