<svg width="96" height="92" viewBox="0 0 96 92" fill="none" xmlns="http://www.w3.org/2000/svg">
<path d="M40.5203 56.5527C40.15 55.6887 39.718 55.4419 38.7307 55.9356C31.6339 59.3914 24.4754 62.7855 17.3786 66.1179C16.8232 66.3647 16.0827 66.5499 15.4656 66.5499C12.0098 66.6116 8.49223 66.5499 5.03641 66.5499C3.43192 66.5499 3.06166 66.1179 3.06166 64.5134C3.06166 63.5877 2.87652 62.6004 2.99995 61.6747C3.24679 59.5765 2.93823 57.4784 2.99995 55.3802C2.99995 54.8248 3.12337 54.2694 3.24679 53.6523C3.24679 53.4671 3.3085 53.282 3.3085 53.1586C2.87652 51.3072 3.24679 49.4559 3.24679 47.6663C3.24679 45.5681 3.24679 43.5316 3.24679 41.4335C3.24679 39.5821 2.87652 37.7925 3.3085 35.9412C3.37021 35.7561 3.24679 35.5092 3.18508 35.2624C3.18508 33.6579 2.99995 32.1151 3.18508 30.5106C3.3085 29.3381 4.54272 28.4741 5.77694 28.4124C8.80079 28.4124 11.8863 28.3507 14.9102 28.4124C16.2678 28.4124 17.4403 29.4615 17.5638 30.7575C17.6872 32.3002 17.5021 33.843 17.4403 35.3858C17.4403 35.6326 17.4403 35.8795 17.4403 36.0646C17.4403 37.7308 17.4403 39.4587 17.4403 41.1249C17.4403 41.3718 17.4403 41.6803 17.4403 41.9272C17.4403 43.6551 17.4403 45.383 17.4403 47.1109C17.4403 47.296 17.3786 47.4812 17.3786 47.6663C17.8106 49.5176 17.8106 51.3072 17.3786 53.1586C17.3169 53.4671 17.5638 53.7757 17.5638 54.146C17.5638 55.7504 17.5021 57.2932 17.4403 58.8977C17.4403 59.0211 17.3786 59.2063 17.3786 59.3297C17.5021 60.3788 17.6872 61.4896 17.8723 62.6621C18.1809 62.5387 18.4894 62.4152 18.798 62.2301C25.0308 59.268 31.2636 56.2441 37.5582 53.3437C38.2987 52.9734 38.5455 52.6649 38.3604 51.8009C37.6816 47.9131 39.7798 44.0253 43.359 42.4208C47 40.8164 51.1963 41.742 53.7265 44.8276C53.8499 45.0127 53.9733 45.1361 54.1584 45.383C55.0841 44.951 56.0715 44.519 56.9971 44.0253C63.1683 41.0632 69.3394 38.1628 75.5105 35.2007C76.1276 34.8921 76.3127 34.5835 76.3127 33.9047C76.3127 32.6088 76.5596 31.3129 76.5596 30.0169C76.5596 28.9061 76.3127 27.7953 76.3127 26.6845C76.3127 25.8823 76.4978 25.08 76.5596 24.2778C76.5596 23.8458 76.3744 23.4755 76.3744 23.0436C76.3744 21.7476 76.3127 20.4517 76.3744 19.2175C76.4978 17.8598 77.6704 16.8108 79.028 16.749C82.0518 16.6873 85.1374 16.6873 88.1612 16.749C89.5189 16.749 90.7531 17.7364 90.8148 19.0941C90.9382 20.6368 90.7531 22.1796 90.6914 23.7224C90.6914 23.9075 90.6297 24.0927 90.6297 24.2778C91.1234 26.1291 91.0617 27.9187 90.6297 29.7701C90.568 30.1403 90.8148 30.5106 90.8148 30.8809C90.8148 32.6088 90.8765 34.3367 90.8148 36.0646C90.8148 36.8669 90.136 37.2371 89.0252 37.2371C85.6311 37.2371 82.1753 37.2371 78.7812 37.2371C78.3492 37.2371 77.8555 37.2988 77.4852 37.484C70.3267 40.8781 63.1065 44.3339 55.9481 47.728C55.8246 47.7897 55.7012 47.8514 55.4544 47.9748C56.1949 51.1221 55.5161 53.9608 53.2945 56.491C55.1458 57.1081 56.4417 58.1572 56.9971 60.0085C57.1206 60.3788 57.1823 60.8108 57.1823 61.181C57.1206 61.9216 56.7503 62.4769 55.9481 62.5387C55.1458 62.6621 54.5904 62.2918 54.3436 61.4896C53.8499 59.8234 52.8008 59.0211 51.1346 59.2063C49.7152 59.3297 48.481 60.5639 48.4193 62.1067C48.3576 65.6859 48.7279 69.2035 50.1472 72.4741C52.3071 77.4727 56.3183 80.0029 61.5638 80.8051C63.4151 81.052 65.2664 81.1137 67.1178 81.1754C69.8331 81.2371 71.8078 83.0884 71.8078 85.6186C71.7461 88.1488 69.8331 89.9384 67.1178 89.9384C53.603 89.9384 40.0883 89.9384 26.5736 89.9384C24.1668 89.9384 22.3155 88.3339 22.0687 86.1123C21.8218 83.7673 23.1795 81.7308 25.4628 81.2988C26.265 81.1137 27.129 81.1754 27.9312 81.1754C30.5231 81.1754 33.0532 80.8669 35.5217 80.0646C40.8288 78.2133 43.7293 74.3255 44.7783 68.9566C45.2103 66.8584 45.3955 64.6368 45.4572 62.4769C45.5806 59.8851 43.1121 58.404 40.8288 59.5148C40.15 59.8234 39.718 60.3171 39.5946 61.1193C39.4095 62.1684 38.7924 62.6004 37.9284 62.4769C37.0645 62.3535 36.6325 61.6747 36.7559 60.6256C37.0028 58.836 38.0518 57.6018 39.6563 56.7995C39.7798 56.7378 39.9649 56.6761 40.0883 56.6144C40.2734 56.6144 40.3969 56.6144 40.5203 56.5527ZM47 84.1375C40.3969 84.1375 33.7938 84.1375 27.1907 84.1375C26.8821 84.1375 26.5119 84.1375 26.2033 84.1992C25.5245 84.3227 25.0925 84.7546 25.0308 85.4335C24.9691 86.174 25.2159 86.7294 25.8948 86.9762C26.265 87.0997 26.697 87.0997 27.0673 87.0997C40.3352 87.0997 53.5413 87.0997 66.8092 87.0997C67.1795 87.0997 67.5497 87.0997 67.92 86.9762C68.6605 86.7294 69.0308 86.174 68.9074 85.4335C68.8457 84.6929 68.4137 84.261 67.6732 84.1992C67.3646 84.1375 66.9943 84.1992 66.6858 84.1992C60.0827 84.1375 53.5413 84.1375 47 84.1375ZM41.1374 50.4433C41.1374 53.714 43.791 56.3058 47 56.3058C50.2089 56.3058 52.8008 53.6523 52.8008 50.4433C52.8008 47.2343 50.2089 44.5807 46.9382 44.5807C43.7293 44.5807 41.1374 47.1726 41.1374 50.4433ZM46.8765 72.4741C45.704 75.9917 43.4207 78.8921 40.0266 81.1754C44.7166 81.1754 49.1598 81.1754 53.5413 81.1754C52.2454 79.8795 50.826 78.707 49.7152 77.2876C48.6044 75.7448 47.8022 74.0169 46.8765 72.4741ZM87.9761 19.7112C85.014 19.7112 82.1753 19.7112 79.3366 19.7112C79.3366 20.6986 79.3366 21.5625 79.3366 22.4882C82.237 22.4882 85.0757 22.4882 87.9761 22.4882C87.9761 21.5625 87.9761 20.6986 87.9761 19.7112ZM79.2748 28.3507C82.1753 28.3507 85.0757 28.3507 87.9761 28.3507C87.9761 27.3633 87.9761 26.4994 87.9761 25.5737C85.0757 25.5737 82.1753 25.5737 79.2748 25.5737C79.2748 26.4994 79.2748 27.4251 79.2748 28.3507ZM6.02379 34.2133C8.92421 34.2133 11.8246 34.2133 14.7251 34.2133C14.7251 33.2259 14.7251 32.3619 14.7251 31.4363C11.8246 31.4363 8.92421 31.4363 6.02379 31.4363C6.02379 32.3619 6.02379 33.2876 6.02379 34.2133ZM87.9761 31.4363C85.014 31.4363 82.1753 31.4363 79.3366 31.4363C79.3366 32.4237 79.3366 33.3493 79.3366 34.275C82.237 34.275 85.1374 34.275 87.9761 34.275C87.9761 33.2876 87.9761 32.3619 87.9761 31.4363ZM14.6633 37.2988C11.7012 37.2988 8.8625 37.2988 6.02379 37.2988C6.02379 38.2862 6.02379 39.1502 6.02379 40.0758C8.92421 40.0758 11.7629 40.0758 14.6633 40.0758C14.6633 39.1502 14.6633 38.2245 14.6633 37.2988ZM6.02379 45.9384C8.92421 45.9384 11.8246 45.9384 14.7251 45.9384C14.7251 44.951 14.7251 44.087 14.7251 43.0997C11.8246 43.0997 8.92421 43.0997 6.02379 43.0997C6.02379 44.087 6.02379 45.0127 6.02379 45.9384ZM14.6633 51.8626C14.6633 50.8753 14.6633 49.9496 14.6633 49.0239C11.7629 49.0239 8.8625 49.0239 6.02379 49.0239C6.02379 50.0113 6.02379 50.937 6.02379 51.8626C8.92421 51.8626 11.7629 51.8626 14.6633 51.8626ZM6.02379 54.8248C6.02379 55.8121 6.02379 56.7378 6.02379 57.6635C8.92421 57.6635 11.8246 57.6635 14.6633 57.6635C14.6633 56.6761 14.6633 55.7504 14.6633 54.8248C11.7629 54.8248 8.92421 54.8248 6.02379 54.8248ZM14.6633 60.749C11.7629 60.749 8.8625 60.749 6.02379 60.749C6.02379 61.7364 6.02379 62.6621 6.02379 63.5877C8.92421 63.5877 11.7629 63.5877 14.6633 63.5877C14.6633 62.6004 14.6633 61.7364 14.6633 60.749Z" fill="#3B3B3B"/>
<path d="M85.0757 7.30721C85.0757 8.60314 85.0757 9.96079 85.0757 11.2567C85.0757 11.627 85.0757 12.059 85.014 12.4292C84.8906 13.2315 84.3969 13.6635 83.5946 13.7252C82.8541 13.7869 82.1753 13.1698 82.1753 12.3675C82.1136 11.0099 82.1753 9.65223 82.1753 8.23288C82.1753 7.92432 82.1753 7.61577 82.1753 7.2455C82.0519 7.18379 81.9901 7.12208 81.8667 7.06037C81.373 7.61577 80.9411 8.23288 80.3857 8.78828C79.6451 9.52881 78.7812 9.52881 78.2258 8.84999C77.6704 8.23288 77.6704 7.36892 78.3492 6.75181C79.7068 5.33246 81.1262 3.9131 82.5455 2.55546C83.2861 1.87664 84.0266 1.81493 84.7054 2.55546C86.1248 3.97481 87.5441 5.39417 88.9635 6.81352C89.5806 7.49234 89.5806 8.3563 89.0252 8.9117C88.4081 9.52881 87.6059 9.4671 86.927 8.78828C86.3716 8.29459 85.8779 7.67748 85.3843 7.12208C85.2608 7.2455 85.1991 7.2455 85.0757 7.30721Z" fill="#3B3B3B"/>
<path d="M12.0716 75.9917C12.5652 75.4363 13.0589 74.9426 13.5526 74.3872C14.2932 73.7083 15.0954 73.6466 15.7125 74.2637C16.3296 74.8809 16.2679 75.7448 15.5891 76.4853C14.2314 77.843 12.8738 79.2006 11.5162 80.5583C10.7139 81.3605 9.97338 81.3605 9.10942 80.5583C7.75178 79.2006 6.39413 77.843 5.03649 76.4853C4.35767 75.7448 4.29596 74.8809 4.91307 74.3255C5.53018 73.7083 6.33242 73.7083 7.07296 74.4489C7.3198 74.6957 7.62836 74.9426 7.8752 75.2511C8.12204 75.498 8.30718 75.8065 8.55402 76.1151C8.61573 76.0534 8.73916 75.9917 8.80087 75.9917C8.80087 75.8065 8.86258 75.5597 8.86258 75.3745C8.86258 73.9552 8.86258 72.5358 8.86258 71.0548C8.86258 70.1291 9.41798 69.5737 10.2202 69.5737C11.0842 69.512 11.7013 70.1291 11.763 71.0548C11.8247 71.857 11.763 72.721 11.763 73.5232C11.763 74.3255 11.763 75.1894 11.763 75.9917C11.8864 75.9299 12.0098 75.9917 12.0716 75.9917Z" fill="#3B3B3B"/>
<path d="M48.4192 50.4433C48.4192 51.2455 47.7404 51.9243 46.9382 51.9243C46.1359 51.9243 45.5188 51.2455 45.5188 50.4433C45.5188 49.641 46.1359 49.0239 46.9999 49.0239C47.8021 48.9622 48.4192 49.641 48.4192 50.4433Z" fill="#3B3B3B"/>
<path d="M46.9382 79.756C46.1359 79.756 45.5188 79.0772 45.5188 78.2749C45.5188 77.4727 46.1359 76.8556 46.9382 76.8556C47.7404 76.8556 48.3575 77.5344 48.3575 78.3367C48.4192 79.0772 47.7404 79.756 46.9382 79.756Z" fill="#3B3B3B"/>
<g style="mix-blend-mode:color">
<rect width="96" height="92" fill="#14FF00"/>
</g>
</svg>
