<svg version="1.1" viewBox="0.0 0.0 100.0 100.0" fill="none" stroke="none" stroke-linecap="square" stroke-miterlimit="10" xmlns:xlink="http://www.w3.org/1999/xlink" xmlns="http://www.w3.org/2000/svg"><clipPath id="p.0"><path d="m0 0l100.0 0l0 100.0l-100.0 0l0 -100.0z" clip-rule="nonzero"/></clipPath><g clip-path="url(#p.0)"><path fill="#000000" fill-opacity="0.0" d="m0 0l100.0 0l0 100.0l-100.0 0z" fill-rule="evenodd"/><path fill="#000000" fill-opacity="0.0" d="m16.664042 23.383389l0 0c0 -5.1373653 4.1646576 -9.302024 9.302023 -9.302024l41.616425 0c2.4670486 0 4.833061 0.98003197 6.5775223 2.7244997c1.7444687 1.7444687 2.7245026 4.1104736 2.7245026 6.577524l0 37.206978c0 5.1373634 -4.1646576 9.302021 -9.302025 9.302021l-41.616425 0c-5.1373653 0 -9.302023 -4.1646576 -9.302023 -9.302021z" fill-rule="evenodd"/><path stroke="#000000" stroke-width="1.0" stroke-linejoin="round" stroke-linecap="butt" d="m16.664042 23.383389l0 0c0 -5.1373653 4.1646576 -9.302024 9.302023 -9.302024l41.616425 0c2.4670486 0 4.833061 0.98003197 6.5775223 2.7244997c1.7444687 1.7444687 2.7245026 4.1104736 2.7245026 6.577524l0 37.206978c0 5.1373634 -4.1646576 9.302021 -9.302025 9.302021l-41.616425 0c-5.1373653 0 -9.302023 -4.1646576 -9.302023 -9.302021z" fill-rule="evenodd"/><path fill="#000000" fill-opacity="0.0" d="m22.165354 7.186352l38.362206 0l0 67.87401l-38.362206 0z" fill-rule="evenodd"/><path fill="#005db9" d="m57.86848 27.4926l0 9.1875l-0.765625 0q-0.859375 -3.59375 -3.203125 -5.5q-2.34375 -1.921875 -5.3125 -1.921875q-2.484375 0 -4.5625 1.421875q-2.0625 1.421875 -3.015625 3.734375q-1.234375 2.9375 -1.234375 6.5625q0 3.546875 0.890625 6.46875q0.90625 2.921875 2.8125 4.421875q1.921875 1.484375 4.96875 1.484375q2.5 0 4.578125 -1.09375q2.09375 -1.09375 4.390625 -3.765625l0 2.28125q-2.21875 2.328125 -4.640625 3.375q-2.40625 1.046875 -5.625 1.046875q-4.25 0 -7.546875 -1.703125q-3.28125 -1.703125 -5.078125 -4.875q-1.78125 -3.1875 -1.78125 -6.78125q0 -3.796875 1.984375 -7.1875q1.984375 -3.40625 5.34375 -5.28125q3.375 -1.875 7.171875 -1.875q2.796875 0 5.890625 1.21875q1.796875 0.703125 2.296875 0.703125q0.625 0 1.078125 -0.453125q0.453125 -0.46875 0.59375 -1.46875l0.765625 0z" fill-rule="nonzero"/></g></svg>