<?xml version="1.0" encoding="utf-8"?>
<!-- Generator: Adobe Illustrator 24.0.2, SVG Export Plug-In . SVG Version: 6.00 Build 0)  -->
<svg version="1.1" id="Layer_1" xmlns="http://www.w3.org/2000/svg" xmlns:xlink="http://www.w3.org/1999/xlink" x="0px" y="0px"
	 viewBox="0 0 179.5 218.8" style="enable-background:new 0 0 179.5 218.8;" xml:space="preserve">
<style type="text/css">
	.st0{fill:none;stroke:#006B4A;stroke-width:10;stroke-linecap:round;stroke-linejoin:round;}
	.st1{fill:#006B4A;}
	.st2{font-family:'MyriadPro-Regular';}
	.st3{font-size:31.944px;}
</style>
<title>pdf</title>
<line class="st0" x1="61.8" y1="5" x2="161.3" y2="5"/>
<path class="st0" d="M161.3,5c7.2,0,13.1,5.9,13.1,13.1"/>
<line class="st0" x1="174.5" y1="18.1" x2="174.5" y2="200.7"/>
<path class="st0" d="M174.5,200.7c0,7.2-5.9,13.1-13.1,13.1"/>
<line class="st0" x1="161.3" y1="213.8" x2="18.1" y2="213.8"/>
<path class="st0" d="M18.1,213.8c-7.2,0-13.1-5.9-13.1-13.1"/>
<polyline class="st0" points="5,200.7 5,57.5 61.8,5 "/>
<line class="st0" x1="64.5" y1="5" x2="64.5" y2="52.3"/>
<path class="st0" d="M64.5,52.3c-0.1,3.8-3.2,6.9-7,7"/>
<line class="st0" x1="57.4" y1="59.3" x2="5" y2="59.3"/>
<line class="st0" x1="91.5" y1="65.7" x2="91.5" y2="182.5"/>
<line class="st0" x1="91.5" y1="182.5" x2="128.4" y2="145.5"/>
<line class="st0" x1="91.5" y1="182.5" x2="51" y2="142"/>
<text transform="matrix(1 0 0 1 107.2319 203.093)" class="st1 st2 st3">CSV</text>
</svg>
