<?xml version="1.0" encoding="utf-8"?>
<!-- Generator: Adobe Illustrator 24.0.2, SVG Export Plug-In . SVG Version: 6.00 Build 0)  -->
<svg version="1.1" id="Capa_1" xmlns="http://www.w3.org/2000/svg" xmlns:xlink="http://www.w3.org/1999/xlink" x="0px" y="0px"
	 viewBox="0 0 89 88" style="enable-background:new 0 0 89 88;" xml:space="preserve">
<style type="text/css">
	.st0{fill:#006B4A;}
</style>
<path class="st0" d="M38.5,54.6c-0.4-0.9-0.8-1.1-1.8-0.6c-7.1,3.5-14.3,6.8-21.4,10.2c-0.6,0.2-1.3,0.4-1.9,0.4
	c-3.5,0.1-7,0-10.4,0c-1.6,0-2-0.4-2-2c0-0.9-0.2-1.9-0.1-2.8c0.2-2.1-0.1-4.2,0-6.3c0-0.6,0.1-1.1,0.2-1.7c0-0.2,0.1-0.4,0.1-0.5
	c-0.4-1.9-0.1-3.7-0.1-5.5c0-2.1,0-4.1,0-6.2c0-1.9-0.4-3.6,0.1-5.5c0.1-0.2-0.1-0.4-0.1-0.7c0-1.6-0.2-3.1,0-4.8
	c0.1-1.2,1.4-2,2.6-2.1c3,0,6.1-0.1,9.1,0c1.4,0,2.5,1,2.7,2.3c0.1,1.5-0.1,3.1-0.1,4.6c0,0.2,0,0.5,0,0.7c0,1.7,0,3.4,0,5.1
	c0,0.2,0,0.6,0,0.8c0,1.7,0,3.5,0,5.2c0,0.2-0.1,0.4-0.1,0.6c0.4,1.9,0.4,3.6,0,5.5c-0.1,0.3,0.2,0.6,0.2,1c0,1.6-0.1,3.1-0.1,4.8
	c0,0.1-0.1,0.3-0.1,0.4c0.1,1,0.3,2.2,0.5,3.3c0.3-0.1,0.6-0.2,0.9-0.4c6.2-3,12.5-6,18.8-8.9c0.7-0.4,1-0.7,0.8-1.5
	c-0.7-3.9,1.4-7.8,5-9.4c3.6-1.6,7.8-0.7,10.4,2.4c0.1,0.2,0.2,0.3,0.4,0.6c0.9-0.4,1.9-0.9,2.8-1.4c6.2-3,12.3-5.9,18.5-8.8
	c0.6-0.3,0.8-0.6,0.8-1.3c0-1.3,0.2-2.6,0.2-3.9c0-1.1-0.2-2.2-0.2-3.3c0-0.8,0.2-1.6,0.2-2.4c0-0.4-0.2-0.8-0.2-1.2
	c0-1.3-0.1-2.6,0-3.8c0.1-1.4,1.3-2.4,2.7-2.5c3-0.1,6.1-0.1,9.1,0c1.4,0,2.6,1,2.7,2.3c0.1,1.5-0.1,3.1-0.1,4.6
	c0,0.2-0.1,0.4-0.1,0.6c0.5,1.9,0.4,3.6,0,5.5c-0.1,0.4,0.2,0.7,0.2,1.1c0,1.7,0.1,3.5,0,5.2c0,0.8-0.7,1.2-1.8,1.2
	c-3.4,0-6.8,0-10.2,0c-0.4,0-0.9,0.1-1.3,0.2c-7.2,3.4-14.4,6.9-21.5,10.2c-0.1,0.1-0.2,0.1-0.5,0.2c0.7,3.1,0.1,6-2.2,8.5
	c1.9,0.6,3.1,1.7,3.7,3.5c0.1,0.4,0.2,0.8,0.2,1.2c-0.1,0.7-0.4,1.3-1.2,1.4c-0.8,0.1-1.4-0.2-1.6-1c-0.5-1.7-1.5-2.5-3.2-2.3
	c-1.4,0.1-2.7,1.4-2.7,2.9c-0.1,3.6,0.3,7.1,1.7,10.4c2.2,5,6.2,7.5,11.4,8.3c1.9,0.2,3.7,0.3,5.6,0.4c2.7,0.1,4.7,1.9,4.7,4.4
	c-0.1,2.5-2,4.3-4.7,4.3c-13.5,0-27,0-40.5,0c-2.4,0-4.3-1.6-4.5-3.8c-0.2-2.3,1.1-4.4,3.4-4.8c0.8-0.2,1.7-0.1,2.5-0.1
	c2.6,0,5.1-0.3,7.6-1.1c5.3-1.9,8.2-5.7,9.3-11.1c0.4-2.1,0.6-4.3,0.7-6.5c0.1-2.6-2.3-4.1-4.6-3c-0.7,0.3-1.1,0.8-1.2,1.6
	c-0.2,1-0.8,1.5-1.7,1.4c-0.9-0.1-1.3-0.8-1.2-1.9c0.2-1.8,1.3-3,2.9-3.8c0.1-0.1,0.3-0.1,0.4-0.2C38.3,54.6,38.4,54.6,38.5,54.6z
	 M45,82.1c-6.6,0-13.2,0-19.8,0c-0.3,0-0.7,0-1,0.1c-0.7,0.1-1.1,0.6-1.2,1.2c-0.1,0.7,0.2,1.3,0.9,1.5c0.4,0.1,0.8,0.1,1.2,0.1
	c13.3,0,26.5,0,39.7,0c0.4,0,0.7,0,1.1-0.1c0.7-0.2,1.1-0.8,1-1.5c-0.1-0.7-0.5-1.2-1.2-1.2c-0.3-0.1-0.7,0-1,0
	C58.1,82.1,51.5,82.1,45,82.1z M39.1,48.4c0,3.3,2.7,5.9,5.9,5.9c3.2,0,5.8-2.7,5.8-5.9c0-3.2-2.6-5.9-5.9-5.9
	C41.7,42.6,39.1,45.2,39.1,48.4z M44.9,70.5c-1.2,3.5-3.5,6.4-6.8,8.7c4.7,0,9.1,0,13.5,0c-1.3-1.3-2.7-2.5-3.8-3.9
	C46.6,73.7,45.8,72,44.9,70.5z M86,17.7c-3,0-5.8,0-8.6,0c0,1,0,1.9,0,2.8c2.9,0,5.7,0,8.6,0C86,19.6,86,18.7,86,17.7z M77.3,26.4
	c2.9,0,5.8,0,8.7,0c0-1,0-1.9,0-2.8c-2.9,0-5.8,0-8.7,0C77.3,24.5,77.3,25.4,77.3,26.4z M4,32.2c2.9,0,5.8,0,8.7,0c0-1,0-1.9,0-2.8
	c-2.9,0-5.8,0-8.7,0C4,30.4,4,31.3,4,32.2z M86,29.4c-3,0-5.8,0-8.6,0c0,1,0,1.9,0,2.8c2.9,0,5.8,0,8.6,0C86,31.3,86,30.4,86,29.4z
	 M12.7,35.3c-3,0-5.8,0-8.6,0c0,1,0,1.9,0,2.8c2.9,0,5.7,0,8.6,0C12.7,37.2,12.7,36.2,12.7,35.3z M4,43.9c2.9,0,5.8,0,8.7,0
	c0-1,0-1.9,0-2.8c-2.9,0-5.8,0-8.7,0C4,42.1,4,43,4,43.9z M12.7,49.9c0-1,0-1.9,0-2.8c-2.9,0-5.8,0-8.6,0c0,1,0,1.9,0,2.8
	C6.9,49.9,9.8,49.9,12.7,49.9z M4,52.8c0,1,0,1.9,0,2.8c2.9,0,5.8,0,8.6,0c0-1,0-1.9,0-2.8C9.8,52.8,6.9,52.8,4,52.8z M12.7,58.7
	c-2.9,0-5.8,0-8.6,0c0,1,0,1.9,0,2.8c2.9,0,5.7,0,8.6,0C12.7,60.6,12.7,59.7,12.7,58.7z"/>
<path class="st0" d="M83.1,5.3c0,1.3,0,2.7,0,3.9c0,0.4,0,0.8-0.1,1.2c-0.1,0.8-0.6,1.2-1.4,1.3c-0.7,0.1-1.4-0.6-1.4-1.4
	c-0.1-1.4,0-2.7,0-4.1c0-0.3,0-0.6,0-1c-0.1-0.1-0.2-0.1-0.3-0.2c-0.5,0.6-0.9,1.2-1.5,1.7c-0.7,0.7-1.6,0.7-2.2,0.1
	c-0.6-0.6-0.6-1.5,0.1-2.1c1.4-1.4,2.8-2.8,4.2-4.2c0.7-0.7,1.5-0.7,2.2,0C84.1,2,85.5,3.4,87,4.8c0.6,0.7,0.6,1.5,0.1,2.1
	c-0.6,0.6-1.4,0.6-2.1-0.1c-0.6-0.5-1-1.1-1.5-1.7C83.3,5.2,83.2,5.2,83.1,5.3z"/>
<path class="st0" d="M10.1,74c0.5-0.6,1-1,1.5-1.6c0.7-0.7,1.5-0.7,2.2-0.1c0.6,0.6,0.6,1.5-0.1,2.2c-1.4,1.4-2.7,2.7-4.1,4.1
	c-0.8,0.8-1.5,0.8-2.4,0c-1.4-1.4-2.7-2.7-4.1-4.1c-0.7-0.7-0.7-1.6-0.1-2.2c0.6-0.6,1.4-0.6,2.2,0.1c0.2,0.2,0.6,0.5,0.8,0.8
	c0.2,0.2,0.4,0.6,0.7,0.9C6.6,74.1,6.7,74,6.8,74c0-0.2,0.1-0.4,0.1-0.6c0-1.4,0-2.8,0-4.3c0-0.9,0.6-1.5,1.4-1.5
	c0.9-0.1,1.5,0.6,1.5,1.5c0.1,0.8,0,1.7,0,2.5c0,0.8,0,1.7,0,2.5C9.9,73.9,10,74,10.1,74z"/>
</svg>
