<?xml version="1.0" encoding="utf-8"?>
<!-- Generator: Adobe Illustrator 24.0.2, SVG Export Plug-In . SVG Version: 6.00 Build 0)  -->
<svg version="1.1" id="Capa_1" xmlns="http://www.w3.org/2000/svg" xmlns:xlink="http://www.w3.org/1999/xlink" x="0px" y="0px"
	 viewBox="0 0 78 117" style="enable-background:new 0 0 78 117;" xml:space="preserve">
<style type="text/css">
	.st0{fill:#006B4A;}
</style>
<path class="st0" d="M40.8,5c0.6,0.2,1.2,0.3,1.8,0.5c3.6,1.3,5.9,4.7,6.1,8.7c0,0.5,0,1.1,0,1.8c0.5,0,0.9,0,1.3,0
	c7.2,0,14.4,0,21.6,0c2,0,2.6,0.5,2.6,2.6c0,10.2,0,20.4,0,30.6c0,0.7,0.1,1.3,0.3,1.9c2,6.3,2,12.5,0,18.7
	c-0.2,0.6-0.3,1.2-0.3,1.8c0,10.2,0,20.5,0,30.7c0,2-0.6,2.5-2.6,2.5c-5.4,0-10.9,0-16.2,0c-0.4,0-0.8,0-1.2,0c0,1.2,0,2.3,0,3.5
	c0,1.8,0,3.6,0,5.4c0,1.6-0.7,2.2-2.2,2.2c-3.4,0-6.7,0-10.1,0c-1.6,0-2.3-0.7-2.3-2.4c0-2.9,0-5.7,0-8.7c-0.5,0-0.9,0-1.3,0
	c-10.9,0-21.7,0-32.5,0c-2.2,0-2.7-0.5-2.7-2.7c0-27.8,0-55.6,0-83.3c0-2.1,0.5-2.7,2.6-2.7c7.8,0,15.5,0,23.3,0c0.4,0,0.9,0,1.4,0
	c0.1-0.9,0.1-1.9,0.1-2.7c0.5-4.2,3.2-7.3,7.3-8.1c0.2-0.1,0.3-0.1,0.5-0.2C39.1,5,40,5,40.8,5z M41.3,89.6
	c-15.9-2.7-27.5-19.7-22.5-37.3C21,44.7,25.4,38.9,32.1,35c10.5-6,20.9-5.3,31.1,0.9c0-2.9,0-5.7,0-8.6c-16.4,0-32.8,0-49.2,0
	c0,0.5,0,0.8,0,1.1c0,21.4,0,42.8,0,64.1c0,1,0.3,1.3,1.2,1.3c8.4-0.1,16.7,0,25,0c0.3,0,0.7-0.1,1.1-0.1
	C41.3,92.3,41.3,91,41.3,89.6z M72.4,60.5c-0.1-14.3-11.6-25.9-25.6-25.8c-14.2,0.1-25.5,11.7-25.5,26C21.3,75,32.8,86.5,46.8,86.5
	C60.9,86.3,72.4,74.7,72.4,60.5z M6.7,19.9c0,27.2,0,54.3,0,81.3c11,0,21.8,0,32.7,0c0-1.2,0-2.4,0-3.6c-0.5,0-0.9,0-1.3,0
	c-8.4,0-16.9,0-25.3,0c-1.9,0-2.5-0.6-2.5-2.5c0-23,0-46,0-69c0-1.9,0.6-2.5,2.4-2.5c3.2,0,6.2,0,9.4,0c0.4,0,0.7-0.1,1.1-0.1
	c-0.1-1.3-0.2-2.4-0.3-3.6C17.6,19.9,12.2,19.9,6.7,19.9z M70.5,77.9c-1.1,1.2-2.1,2.3-3,3.5c-0.3,0.4-0.6,1-0.6,1.5
	c-0.1,4.1,0,8.1,0,12.3c0,1.8-0.6,2.4-2.4,2.5c-3.1,0-6.1,0-9.2,0c-0.4,0-0.8,0-1.1,0.1c0,1.3,0,2.4,0,3.5c5.5,0,10.9,0,16.3,0
	C70.5,93.4,70.5,85.7,70.5,77.9z M55.8,23.5c2.9,0,5.7,0,8.5,0c2,0,2.6,0.6,2.6,2.5c0,4.1,0,8.1,0,12.1c0,0.4,0.1,0.9,0.3,1.1
	c1.1,1.3,2.2,2.5,3.3,3.7c0-7.7,0-15.5,0-23.1c-4.9,0-9.7,0-14.4,0C55.9,21.1,55.9,22.3,55.8,23.5z M43.2,97.6c0,5,0,9.8,0,14.7
	c2.4,0,4.8,0,7.1,0c0-4.9,0-9.8,0-14.7C48,97.6,45.6,97.6,43.2,97.6z M52.3,19.9c-8.6,0-17,0-25.5,0c-0.4,2.3,0,3.7,2.8,3.7
	c5.3-0.1,10.7-0.1,16-0.1c1.5,0,3.1,0,4.6,0c1.3,0,2-0.7,2-1.9C52.3,21,52.3,20.5,52.3,19.9z M63.2,85c-3.4,2.3-7,3.8-10.9,4.6
	c0,1.5,0,2.8,0,4.1c3.6,0,7.2,0,10.9,0C63.2,90.9,63.2,88,63.2,85z M37.7,16.1c0-1.3,0-2.5,0-3.6c1.2,0,2.4,0,3.7,0
	c0,1.2,0,2.4,0,3.5c1.2,0,2.4,0,3.5,0c0.5-2.9-0.5-5.3-2.6-6.5c-1.9-1.2-4.3-1-6.1,0.3c-1.8,1.4-2.6,4-2,6.2
	C35.3,16.1,36.4,16.1,37.7,16.1z M48.6,93.7c0-1.3,0-2.5,0-3.7c-1.2,0-2.3,0-3.5,0c0,1.3,0,2.5,0,3.7C46.3,93.7,47.4,93.7,48.6,93.7
	z"/>
<path class="st0" d="M68.7,60.5c0.1,12.2-9.8,22.2-21.9,22.2c-12,0-21.8-9.8-21.9-22.1c0-12.3,9.7-22.3,21.9-22.3
	C58.9,38.3,68.6,48.2,68.7,60.5z M65.1,60.5c0-10.2-8.1-18.5-18.2-18.5C36.8,42,28.6,50.3,28.6,60.5c0,10.2,8.1,18.5,18.2,18.5
	C56.9,79,65,70.7,65.1,60.5z"/>
</svg>
