<svg width="17" height="17" viewBox="0 0 26 26" fill="none" xmlns="http://www.w3.org/2000/svg">
    <g clip-path="url(#clip0_473_323)">
        <path d="M14.8451 0C15.4716 0 16.0981 0 16.7247 0C16.8087 0.00785736 16.8927 0.0314294 16.9691 0.0314294C18.3368 0.0942883 19.6815 0.29858 21.0032 0.675733C22.241 1.02931 23.4252 1.52433 24.4567 2.34935C25.0984 2.86008 25.618 3.47295 25.8701 4.29012C25.9236 4.46298 25.9618 4.6437 26 4.82442C26 5.02085 26 5.21729 26 5.42158C25.9924 5.46086 25.9694 5.50015 25.9694 5.5473C25.9694 6.45875 25.9694 7.3702 25.9771 8.2738C25.9847 8.73738 25.8548 9.15382 25.6103 9.53098C25.1825 10.191 24.5865 10.6546 23.9371 11.0553C22.898 11.6839 21.7673 12.0846 20.6059 12.3832C20.4684 12.4146 20.4379 12.4775 20.4455 12.6111C20.4531 13.2632 20.4531 13.9232 20.4455 14.5754C20.4455 14.7168 20.4837 14.7954 20.6059 14.8661C21.2554 15.2668 21.8513 15.7383 22.2944 16.3747C22.7299 17.0033 22.921 17.6791 22.8828 18.4648C22.8369 19.3684 22.8598 20.2798 22.8751 21.1913C22.8904 21.8513 22.6688 22.4013 22.2639 22.8885C21.752 23.5092 21.1102 23.9492 20.4073 24.3107C18.65 25.23 16.7629 25.6621 14.8222 25.8821C14.402 25.9293 13.9741 25.9607 13.5463 26C12.9427 26 12.3391 26 11.7432 26C11.705 25.9921 11.6591 25.9764 11.6209 25.9764C11.025 25.9214 10.4367 25.89 9.84073 25.8114C8.41199 25.6307 7.01381 25.2928 5.67676 24.7271C4.78284 24.3421 3.9424 23.8707 3.25478 23.1556C2.70467 22.5821 2.39142 21.9142 2.41434 21.0813C2.4449 20.1227 2.42198 19.1641 2.42198 18.2055C2.42198 18.1505 2.4067 18.0876 2.42962 18.0405C2.49074 17.8991 2.39906 17.8676 2.31502 17.8048C1.8566 17.4826 1.3829 17.1683 0.95504 16.8069C0.450779 16.3669 0.145166 15.809 0 15.149C0 13.939 0 12.7211 0 11.511C0.0152806 11.4717 0.0382016 11.4246 0.0458419 11.3853C0.114605 10.8746 0.297972 10.4031 0.580664 9.9867C1.04672 9.29526 1.67323 8.79238 2.3685 8.36809C3.30826 7.80236 4.31678 7.43306 5.3635 7.16591C5.49339 7.13448 5.54687 7.07948 5.53923 6.93019C5.53159 6.40375 5.53923 5.8773 5.53159 5.35086C5.53159 4.5337 5.78372 3.81082 6.28034 3.17437C6.89157 2.40435 7.67088 1.87005 8.53423 1.44575C10.238 0.612874 12.0488 0.243578 13.913 0.0785736C14.2186 0.0471442 14.5319 0.0235721 14.8451 0ZM15.9071 1.59504C14.7153 1.6029 13.6609 1.67362 12.6142 1.85434C11.3612 2.07434 10.1387 2.40435 8.99265 3.00937C8.38907 3.33152 7.82369 3.70082 7.41875 4.28226C7.00617 4.86371 6.99853 5.44515 7.39583 6.01874C7.51043 6.17588 7.63268 6.33303 7.77784 6.46661C8.35851 7.03234 9.06142 7.40163 9.80253 7.69235C11.2465 8.2738 12.7593 8.55666 14.3027 8.66667C16.2357 8.8081 18.1458 8.69024 20.0406 8.24237C21.1331 7.97522 22.1875 7.60592 23.1425 6.97734C23.5475 6.71018 23.9218 6.39589 24.1969 5.97159C24.5407 5.44515 24.5483 4.90299 24.2045 4.37655C24.0899 4.20369 23.96 4.03868 23.8149 3.89725C23.1502 3.24509 22.3326 2.84436 21.4846 2.53007C19.628 1.83862 17.7179 1.61076 15.9071 1.59504ZM5.58507 8.76881C4.50015 9.08311 3.45342 9.46812 2.55187 10.1753C2.2921 10.3796 2.05525 10.631 1.8566 10.8982C1.46694 11.4167 1.4593 11.9746 1.82604 12.5168C1.98648 12.7525 2.17749 12.9725 2.39142 13.1611C3.16309 13.829 4.08757 14.2218 5.04261 14.5283C6.57067 15.0233 8.13694 15.2354 9.73377 15.2668C11.4528 15.3061 13.149 15.1568 14.8069 14.7011C15.8613 14.4104 16.8775 14.0175 17.7714 13.3497C17.97 13.2004 18.1534 13.0196 18.3368 12.8546C18.2833 12.8154 18.2527 12.8154 18.2298 12.8154C17.5192 12.8625 16.8163 12.9489 16.1058 12.9646C14.5701 13.0039 13.042 12.8704 11.5369 12.5482C10.1922 12.2653 8.89333 11.8568 7.70144 11.1417C6.76168 10.5917 5.92889 9.92384 5.58507 8.76881ZM4.10285 18.6062C4.2251 18.9598 4.43138 19.2348 4.68351 19.4705C5.33294 20.0991 6.11225 20.4841 6.93741 20.7984C8.21334 21.2856 9.54276 21.5449 10.8951 21.6627C12.8892 21.8356 14.8681 21.7413 16.8316 21.2856C17.9089 21.0342 18.948 20.6727 19.8954 20.0834C20.3614 19.7927 20.7893 19.4548 21.0873 18.9755C21.3623 18.5434 21.4311 18.0798 21.1866 17.6083C20.8963 17.0505 20.4226 16.689 19.9336 16.359C19.7044 16.579 19.5057 16.8069 19.2765 16.9955C18.5201 17.6398 17.6415 18.0798 16.7247 18.4255C14.318 19.3291 11.8272 19.6277 9.27535 19.5177C8.03761 19.4627 6.80752 19.3134 5.60035 19.0148C5.10373 18.8969 4.62239 18.7477 4.10285 18.6062ZM1.57391 14.5597C1.47458 15.0233 1.68087 15.3454 1.97884 15.6283C2.50602 16.1312 3.13253 16.469 3.7896 16.7519C5.35586 17.4198 6.99089 17.7419 8.67176 17.8755C10.7041 18.0326 12.7211 17.8991 14.7 17.3805C15.8613 17.074 16.9768 16.6733 17.9777 15.974C18.2604 15.7776 18.4972 15.5261 18.7341 15.2747C18.9098 15.0861 18.8945 14.8347 18.8563 14.5675C18.2756 15.0154 17.6721 15.3611 17.0226 15.644C15.464 16.3197 13.8366 16.6576 12.1634 16.799C9.97825 16.9876 7.81605 16.8933 5.67676 16.3826C4.2251 16.0369 2.8422 15.5183 1.62739 14.599C1.62739 14.5754 1.60447 14.5675 1.57391 14.5597ZM3.99589 21.0106C3.89656 21.482 4.10285 21.8042 4.40082 22.087C4.98149 22.6371 5.67676 22.9906 6.39495 23.2892C8.19042 24.0199 10.0623 24.3185 11.98 24.3892C13.615 24.4442 15.2348 24.3107 16.8316 23.9178C18.0235 23.6271 19.1772 23.2264 20.2239 22.5585C20.5754 22.3385 20.9039 22.0949 21.156 21.7492C21.3165 21.5292 21.3241 21.2934 21.2859 21.0184C20.3309 21.757 19.2689 22.2285 18.1534 22.5742C16.2662 23.1556 14.3256 23.3599 12.362 23.3364C10.8722 23.3206 9.39759 23.1635 7.94593 22.8021C6.67 22.4799 5.44755 22.0242 4.35498 21.2699C4.24038 21.1913 4.12577 21.1049 3.99589 21.0106ZM7.11314 7.97522C7.05201 8.32094 7.1055 8.60381 7.31942 8.83167C7.50279 9.02811 7.70144 9.22454 7.91537 9.38954C8.47311 9.81384 9.10726 10.1124 9.75669 10.356C11.3153 10.9532 12.9351 11.236 14.5854 11.3303C16.5184 11.4403 18.4284 11.2989 20.308 10.796C21.4617 10.4896 22.5695 10.081 23.5627 9.38169C23.8149 9.20097 24.0364 8.9731 24.258 8.74524C24.449 8.54881 24.4414 8.28951 24.4108 8.06165C23.8913 8.36023 23.3947 8.69024 22.8598 8.94168C20.8351 9.90027 18.6729 10.2381 16.4649 10.3167C15.2883 10.356 14.104 10.301 12.9351 10.1439C11.598 9.96313 10.2991 9.64884 9.05378 9.11454C8.36615 8.81596 7.71672 8.45452 7.11314 7.97522Z" fill="#BBAF71"/>
    </g>
    <defs>
        <clipPath id="clip0_473_323">
            <rect width="26" height="26" fill="white"/>
        </clipPath>
    </defs>
</svg>
