<svg width="78" height="117" viewBox="0 0 78 117" fill="none" xmlns="http://www.w3.org/2000/svg">
<path d="M40.8154 5C41.4073 5.2 42.0649 5.33333 42.6568 5.53333C46.2739 6.86667 48.5757 10.2 48.7073 14.2667C48.7073 14.8 48.7073 15.3333 48.7073 16.0667C49.1676 16.0667 49.628 16.0667 50.0226 16.0667C57.1911 16.0667 64.4253 16.0667 71.5938 16.0667C73.6325 16.0667 74.2244 16.6 74.2244 18.6667C74.2244 28.8667 74.2244 39.0667 74.2244 49.2667C74.2244 49.9333 74.3559 50.5333 74.5532 51.1333C76.5919 57.4 76.5919 63.6 74.5532 69.8667C74.3559 70.4667 74.2901 71.0667 74.2901 71.6667C74.2901 81.8667 74.2901 92.1333 74.2901 102.333C74.2901 104.333 73.6983 104.867 71.7253 104.867C66.3325 104.867 60.8739 104.867 55.4811 104.867C55.0865 104.867 54.692 104.867 54.2316 104.867C54.2316 106.067 54.2316 107.2 54.2316 108.333C54.2316 110.133 54.2316 111.933 54.2316 113.733C54.2316 115.333 53.5739 115.933 51.9956 115.933C48.6415 115.933 45.2874 115.933 41.9334 115.933C40.2892 115.933 39.6316 115.267 39.6316 113.533C39.6316 110.667 39.6316 107.867 39.6316 104.867C39.1712 104.867 38.7109 104.867 38.3163 104.867C27.4649 104.867 16.6136 104.867 5.82799 104.867C3.65772 104.867 3.13159 104.333 3.13159 102.133C3.13159 74.3333 3.13159 46.5333 3.13159 18.8C3.13159 16.6667 3.65772 16.0667 5.76222 16.0667C13.5226 16.0667 21.2829 16.0667 29.0433 16.0667C29.4379 16.0667 29.8983 16.0667 30.4244 16.0667C30.4901 15.1333 30.4901 14.2 30.5559 13.3333C31.0163 9.13333 33.7784 6.06667 37.8559 5.2C38.0532 5.13333 38.1847 5.06667 38.3163 5C39.1055 5 39.9604 5 40.8154 5ZM41.2757 89.6C25.3604 86.8667 13.7856 69.8667 18.7838 52.2667C20.9541 44.7333 25.3604 38.8667 32.0685 35C42.5253 29 52.982 29.6667 63.1757 35.8667C63.1757 32.9333 63.1757 30.1333 63.1757 27.2667C46.7343 27.2667 30.4244 27.2667 13.9829 27.2667C13.9829 27.7333 13.9829 28.0667 13.9829 28.4C13.9829 49.8 13.9829 71.2 13.9829 92.5333C13.9829 93.5333 14.246 93.8 15.2325 93.8C23.5847 93.7333 31.937 93.8 40.2235 93.8C40.5523 93.8 40.8811 93.7333 41.2757 93.7333C41.2757 92.3333 41.2757 91 41.2757 89.6ZM72.3829 60.4667C72.3172 46.1333 60.8082 34.5333 46.7343 34.6667C32.5289 34.8 21.2172 46.3333 21.2829 60.6667C21.3487 75 32.792 86.4667 46.8001 86.4667C60.9397 86.3333 72.4487 74.6667 72.3829 60.4667ZM6.74871 19.8667C6.74871 47.0667 6.74871 74.1333 6.74871 101.133C17.7316 101.133 28.5829 101.133 39.4343 101.133C39.4343 99.9333 39.4343 98.7333 39.4343 97.5333C38.9739 97.5333 38.5136 97.5333 38.119 97.5333C29.701 97.5333 21.2172 97.5333 12.7992 97.5333C10.892 97.5333 10.3001 96.9333 10.3001 95C10.3001 72 10.3001 49 10.3001 26C10.3001 24.1333 10.892 23.5333 12.7334 23.5333C15.8902 23.5333 18.9811 23.5333 22.1379 23.5333C22.5325 23.5333 22.8613 23.4667 23.2559 23.4667C23.1901 22.2 23.0586 21.0667 22.9929 19.8667C17.6001 19.8667 12.2073 19.8667 6.74871 19.8667ZM70.4757 77.8667C69.4235 79.0667 68.3712 80.1333 67.5163 81.3333C67.1874 81.7333 66.9244 82.3333 66.9244 82.8C66.8586 86.8667 66.9244 90.9333 66.9244 95.0667C66.9244 96.8667 66.3325 97.4667 64.5568 97.5333C61.4658 97.5333 58.4406 97.5333 55.3496 97.5333C54.955 97.5333 54.5604 97.5333 54.2316 97.6C54.2316 98.8667 54.2316 100 54.2316 101.133C59.7559 101.133 65.1487 101.133 70.5415 101.133C70.4757 93.4 70.4757 85.7333 70.4757 77.8667ZM55.81 23.4667C58.7037 23.4667 61.5316 23.4667 64.3595 23.4667C66.3325 23.4667 66.9244 24.0667 66.9244 26C66.9244 30.0667 66.9244 34.0667 66.9244 38.1333C66.9244 38.5333 66.9901 39 67.1874 39.2667C68.2397 40.5333 69.3577 41.7333 70.4757 43C70.4757 35.2667 70.4757 27.5333 70.4757 19.8667C65.6091 19.8667 60.8082 19.8667 56.073 19.8667C55.9415 21.0667 55.8757 22.2667 55.81 23.4667ZM43.2487 97.6C43.2487 102.6 43.2487 107.4 43.2487 112.267C45.682 112.267 48.0496 112.267 50.3514 112.267C50.3514 107.333 50.3514 102.467 50.3514 97.6C47.9838 97.6 45.6163 97.6 43.2487 97.6ZM52.3244 19.8667C43.7091 19.8667 35.291 19.8667 26.873 19.8667C26.4784 22.2 26.873 23.6 29.6352 23.5333C34.9622 23.4 40.2892 23.4667 45.682 23.4667C47.1947 23.4667 48.773 23.4667 50.2856 23.4667C51.601 23.4667 52.2586 22.8 52.3244 21.5333C52.3244 21 52.3244 20.4667 52.3244 19.8667ZM63.1757 85C59.7559 87.3333 56.1388 88.8 52.3244 89.6C52.3244 91.0667 52.3244 92.4 52.3244 93.7333C55.9415 93.7333 59.5586 93.7333 63.1757 93.7333C63.1757 90.8667 63.1757 88 63.1757 85ZM37.7244 16.0667C37.7244 14.8 37.7244 13.6 37.7244 12.4667C38.9739 12.4667 40.0919 12.4667 41.4073 12.4667C41.4073 13.6667 41.4073 14.8667 41.4073 16C42.6568 16 43.7748 16 44.8929 16C45.3532 13.1333 44.4325 10.7333 42.328 9.46667C40.4208 8.26667 37.9874 8.46667 36.2118 9.8C34.4361 11.2 33.5811 13.8 34.2388 16C35.291 16.0667 36.4091 16.0667 37.7244 16.0667ZM48.5757 93.7333C48.5757 92.4 48.5757 91.2667 48.5757 90.0667C47.392 90.0667 46.2739 90.0667 45.0901 90.0667C45.0901 91.3333 45.0901 92.5333 45.0901 93.7333C46.2739 93.7333 47.392 93.7333 48.5757 93.7333Z" fill="#3B3B3B"/>
<path d="M68.7001 60.4667C68.7659 72.6667 58.901 82.6667 46.8001 82.6667C34.765 82.6667 24.9659 72.8667 24.9001 60.6C24.9001 48.2667 34.6335 38.3334 46.8001 38.3334C58.901 38.3334 68.6344 48.2 68.7001 60.4667ZM65.083 60.5334C65.083 50.3334 56.9938 42.0667 46.9317 42.0667C36.8038 42 28.6488 50.2667 28.6488 60.5334C28.6488 70.7334 36.738 79 46.8001 79C56.8623 79 65.0173 70.7334 65.083 60.5334Z" fill="#3B3B3B"/>
<g style="mix-blend-mode:color">
<rect width="78" height="117" fill="#14FF00"/>
</g>
</svg>
