<svg width="370" height="370" viewBox="0 0 370 370" fill="none" xmlns="http://www.w3.org/2000/svg">
<g clip-path="url(#clip0_369_350)">
<path d="M211.258 0C220.173 0 229.089 0 238.005 0C239.201 0.111816 240.397 0.447265 241.484 0.447265C260.946 1.3418 280.082 4.24902 298.892 9.6162C316.506 14.6479 333.359 21.6924 348.037 33.4331C357.17 40.7011 364.564 49.4228 368.152 61.0517C368.913 63.5116 369.456 66.0834 370 68.6552C370 71.4506 370 74.246 370 77.1532C369.891 77.7123 369.565 78.2714 369.565 78.9423C369.565 91.913 369.565 104.884 369.674 117.743C369.783 124.34 367.934 130.266 364.455 135.633C358.366 145.026 349.885 151.623 340.644 157.325C325.857 166.271 309.765 171.973 293.238 176.222C291.281 176.67 290.846 177.564 290.955 179.465C291.064 188.746 291.064 198.138 290.955 207.419C290.955 209.432 291.499 210.55 293.238 211.556C302.48 217.259 310.961 223.968 317.267 233.025C323.465 241.97 326.183 251.587 325.639 262.768C324.987 275.627 325.313 288.598 325.53 301.568C325.748 310.961 322.595 318.788 316.832 325.721C309.547 334.554 300.414 340.816 290.411 345.96C265.404 359.042 238.548 365.192 210.932 368.323C204.952 368.994 198.863 369.441 192.774 370C184.185 370 175.595 370 167.114 370C166.571 369.888 165.918 369.665 165.375 369.665C156.894 368.882 148.522 368.435 140.041 367.316C119.709 364.745 99.8119 359.937 80.7846 351.886C68.0635 346.407 56.1034 339.698 46.318 329.523C38.4896 321.36 34.0317 311.856 34.3579 300.003C34.7928 286.361 34.4666 272.72 34.4666 259.078C34.4666 258.296 34.2492 257.401 34.5754 256.73C35.4452 254.717 34.1405 254.27 32.9445 253.376C26.4208 248.791 19.6797 244.319 13.5909 239.175C6.41493 232.913 2.06582 224.974 0 215.582C0 198.362 0 181.031 0 163.811C0.217455 163.252 0.543638 162.581 0.652366 162.022C1.63091 154.754 4.24038 148.045 8.2633 142.118C14.8957 132.279 23.8113 125.122 33.7056 119.084C47.0791 111.034 61.4311 105.778 76.3268 101.976C78.1751 101.529 78.9362 100.746 78.8275 98.6219C78.7188 91.1303 78.8275 83.6386 78.7188 76.1469C78.7188 64.518 82.3068 54.2309 89.3741 45.1738C98.0723 34.2158 109.163 26.6123 121.449 20.5742C145.695 8.72167 171.463 3.4663 197.993 1.11816C202.342 0.670898 206.8 0.335449 211.258 0ZM226.371 22.6987C209.409 22.8105 194.405 23.8169 179.509 26.3886C161.678 29.5195 144.282 34.2158 127.972 42.8256C119.383 47.4101 111.337 52.6655 105.574 60.9399C99.7032 69.2143 99.5945 77.4887 105.248 85.6513C106.879 87.8876 108.619 90.1239 110.685 92.0248C118.948 100.076 128.951 105.331 139.498 109.468C160.047 117.743 181.575 121.768 203.538 123.333C231.046 125.346 258.228 123.669 285.192 117.295C300.741 113.494 315.745 108.238 329.336 99.2928C335.098 95.4911 340.426 91.0184 344.34 84.9804C349.233 77.4887 349.342 69.7733 344.449 62.2817C342.818 59.8217 340.97 57.4736 338.904 55.4609C329.445 46.1801 317.811 40.4775 305.742 36.0048C279.321 26.165 252.139 22.9223 226.371 22.6987ZM79.4799 124.787C64.0406 129.26 49.1449 134.739 36.315 144.802C32.6183 147.709 29.2477 151.287 26.4208 155.089C20.8757 162.469 20.767 170.408 25.9859 178.123C28.2692 181.478 30.9874 184.609 34.0317 187.292C45.0132 196.797 58.1693 202.387 71.7602 206.748C93.5057 213.793 115.795 216.812 138.519 217.259C162.983 217.818 187.12 215.694 210.714 209.208C225.718 205.071 240.179 199.48 252.9 189.976C255.727 187.851 258.337 185.28 260.946 182.931C260.185 182.372 259.75 182.372 259.424 182.372C249.312 183.043 239.309 184.273 229.198 184.497C207.344 185.056 185.598 183.155 164.179 178.571C145.043 174.545 126.559 168.731 109.597 158.555C96.2239 150.728 84.3726 141.224 79.4799 124.787ZM58.3867 264.781C60.1264 269.813 63.062 273.726 66.65 277.081C75.8919 286.026 86.9821 291.505 98.7247 295.978C116.882 302.91 135.801 306.6 155.046 308.277C183.423 310.737 211.584 309.396 239.527 302.91C254.857 299.332 269.644 294.189 283.127 285.802C289.759 281.665 295.848 276.857 300.088 270.036C304.002 263.886 304.981 257.289 301.502 250.58C297.37 242.641 290.629 237.498 283.67 232.801C280.408 235.932 277.582 239.175 274.32 241.859C263.556 251.028 251.052 257.289 238.005 262.209C203.756 275.068 168.31 279.317 131.995 277.752C114.381 276.969 96.8763 274.844 79.6973 270.595C72.63 268.918 65.7802 266.794 58.3867 264.781ZM22.3979 207.196C20.9844 213.793 23.9201 218.377 28.1604 222.403C35.6627 229.559 44.5783 234.367 53.9289 238.392C76.218 247.897 99.4858 252.481 123.406 254.382C152.327 256.618 181.031 254.717 209.192 247.338C225.718 242.977 241.593 237.274 255.836 227.322C259.859 224.527 263.23 220.949 266.6 217.371C269.101 214.687 268.883 211.109 268.34 207.307C260.076 213.681 251.487 218.601 242.245 222.626C220.065 232.242 196.906 237.05 173.094 239.063C141.998 241.747 111.228 240.405 80.7846 233.137C60.1264 228.217 40.4467 220.837 23.159 207.755C23.159 207.419 22.8328 207.307 22.3979 207.196ZM56.8645 298.997C55.4511 305.706 58.3867 310.29 62.6271 314.316C70.8904 322.143 80.7846 327.174 91.005 331.423C116.556 341.822 143.194 346.071 170.485 347.078C193.753 347.86 216.803 345.96 239.527 340.369C256.488 336.231 272.906 330.529 287.802 321.024C292.803 317.894 297.479 314.427 301.067 309.507C303.35 306.377 303.459 303.022 302.915 299.109C289.324 309.619 274.211 316.328 258.337 321.248C231.481 329.523 203.864 332.43 175.921 332.094C154.719 331.871 133.735 329.634 113.077 324.491C94.9192 319.906 77.5228 313.421 61.9747 302.687C60.3438 301.568 58.7129 300.338 56.8645 298.997ZM101.225 113.494C100.356 118.413 101.117 122.439 104.161 125.681C106.771 128.477 109.597 131.272 112.642 133.62C120.579 139.659 129.603 143.908 138.845 147.374C161.026 155.872 184.076 159.897 207.561 161.239C235.069 162.804 262.251 160.792 288.998 153.636C305.416 149.275 321.181 143.46 335.316 133.509C338.904 130.937 342.057 127.694 345.21 124.452C347.928 121.656 347.82 117.966 347.385 114.723C339.991 118.973 332.924 123.669 325.313 127.247C296.5 140.888 265.73 145.697 234.308 146.815C217.564 147.374 200.711 146.591 184.076 144.355C165.048 141.783 146.565 137.31 128.842 129.707C119.057 125.458 109.815 120.314 101.225 113.494Z" fill="#BBAF71"/>
</g>
<defs>
<clipPath id="clip0_369_350">
<rect width="370" height="370" fill="white"/>
</clipPath>
</defs>
</svg>
